<svg xmlns="http://www.w3.org/2000/svg" width="1100" height="600">
<path d="M 96.71348314606738,135.9269662921348 L 138.4269662921348,135.9269662921348 L 138.4269662921348,163.73595505617976 Z" fill="#bfbfbf"/>
<path d="M 54.99999999999994,135.9269662921348 L 96.71348314606738,135.9269662921348 L 54.99999999999994,191.54494382022472 Z" fill="#bfbfbf"/>
<path d="M 96.71348314606738,135.9269662921348 L 138.4269662921348,163.73595505617976 L 54.99999999999994,191.54494382022472 Z" fill="#bfbfbf"/>
<path d="M 138.4269662921348,163.73595505617976 L 110.61797752808984,252.72471910112358 L 54.99999999999994,191.54494382022472 Z" fill="#bfbfbf"/>
<path d="M 138.4269662921348,163.73595505617976 L 166.23595505617973,263.84831460674155 L 110.61797752808984,252.72471910112358 Z" fill="#bfbfbf"/>
<path d="M 138.4269662921348,163.73595505617976 L 221.85393258426964,163.73595505617976 L 166.23595505617973,263.84831460674155 Z" fill="#bfbfbf"/>
<path d="M 221.85393258426964,163.73595505617976 L 277.4719101123595,280.53370786516854 L 166.23595505617973,263.84831460674155 Z" fill="#bfbfbf"/>
<path d="M 221.85393258426964,163.73595505617976 L 360.8988764044944,163.73595505617976 L 277.4719101123595,280.53370786516854 Z" fill="#bfbfbf"/>
<path d="M 360.8988764044944,163.73595505617976 L 388.70786516853934,302.7808988764045 L 277.4719101123595,280.53370786516854 Z" fill="#bfbfbf"/>
<path d="M 360.8988764044944,163.73595505617976 L 499.9438202247191,163.73595505617976 L 388.70786516853934,302.7808988764045 Z" fill="#bfbfbf"/>
<path d="M 499.9438202247191,163.73595505617976 L 499.9438202247191,325.0280898876405 L 388.70786516853934,302.7808988764045 Z" fill="#bfbfbf"/>
<path d="M 499.9438202247191,163.73595505617976 L 583.370786516854,247.16292134831463 L 499.9438202247191,325.0280898876405 Z" fill="#bfbfbf"/>
<path d="M 499.9438202247191,163.73595505617976 L 611.1797752808989,135.9269662921348 L 583.370786516854,247.16292134831463 Z" fill="#bfbfbf"/>
<path d="M 583.370786516854,247.16292134831463 L 638.9887640449438,358.3988764044944 L 499.9438202247191,325.0280898876405 Z" fill="#bfbfbf"/>
<path d="M 611.1797752808989,135.9269662921348 L 694.6067415730338,202.6685393258427 L 583.370786516854,247.16292134831463 Z" fill="#bfbfbf"/>
<path d="M 694.6067415730338,202.6685393258427 L 694.6067415730338,302.7808988764045 L 583.370786516854,247.16292134831463 Z" fill="#bfbfbf"/>
<path d="M 583.370786516854,247.16292134831463 L 694.6067415730338,302.7808988764045 L 638.9887640449438,358.3988764044944 Z" fill="#bfbfbf"/>
<path d="M 694.6067415730338,202.6685393258427 L 805.8426966292136,263.84831460674155 L 694.6067415730338,302.7808988764045 Z" fill="#bfbfbf"/>
<path d="M 694.6067415730338,302.7808988764045 L 750.2247191011236,397.3314606741573 L 638.9887640449438,358.3988764044944 Z" fill="#bfbfbf"/>
<path d="M 805.8426966292136,263.84831460674155 L 750.2247191011236,397.3314606741573 L 694.6067415730338,302.7808988764045 Z" fill="#bfbfbf"/>
<path d="M 805.8426966292136,263.84831460674155 L 861.4606741573034,386.20786516853934 L 750.2247191011236,397.3314606741573 Z" fill="#bfbfbf"/>
<path d="M 750.2247191011236,397.3314606741573 L 861.4606741573034,386.20786516853934 L 917.0786516853934,464.0730337078652 Z" fill="#bfbfbf"/>
<path d="M 805.8426966292136,263.84831460674155 L 917.0786516853934,330.58988764044943 L 861.4606741573034,386.20786516853934 Z" fill="#bfbfbf"/>
<path d="M 917.0786516853934,330.58988764044943 L 944.8876404494383,386.20786516853934 L 861.4606741573034,386.20786516853934 Z" fill="#bfbfbf"/>
<path d="M 861.4606741573034,386.20786516853934 L 944.8876404494383,386.20786516853934 L 917.0786516853934,464.0730337078652 Z" fill="#bfbfbf"/>
<path d="M 944.8876404494383,274.9719101123595 L 1000.5056179775281,286.09550561797755 L 917.0786516853934,330.58988764044943 Z" fill="#bfbfbf"/>
<path d="M 1000.5056179775281,286.09550561797755 L 1045.0,297.21910112359546 L 1028.3146067415732,358.3988764044944 Z" fill="#bfbfbf"/>
<path d="M 1000.5056179775281,286.09550561797755 L 1028.3146067415732,358.3988764044944 L 917.0786516853934,330.58988764044943 Z" fill="#bfbfbf"/>
<path d="M 944.8876404494383,386.20786516853934 L 1028.3146067415732,358.3988764044944 L 1000.5056179775281,441.82584269662925 Z" fill="#bfbfbf"/>
<path d="M 944.8876404494383,386.20786516853934 L 1000.5056179775281,441.82584269662925 L 917.0786516853934,464.0730337078652 Z" fill="#bfbfbf"/>
<path d="M 917.0786516853934,330.58988764044943 L 944.8876404494383,386.20786516853934 L 1028.3146067415732,358.3988764044944 Z" fill="#bfbfbf"/>
<circle cx="96.71348314606738" cy="135.9269662921348" r="8" fill="#bfbfbf" />
<circle cx="138.4269662921348" cy="135.9269662921348" r="8" fill="#bfbfbf" />
<circle cx="138.4269662921348" cy="163.73595505617976" r="8" fill="#bfbfbf" />
<circle cx="54.99999999999994" cy="135.9269662921348" r="8" fill="#bfbfbf" />
<circle cx="96.71348314606738" cy="135.9269662921348" r="8" fill="#bfbfbf" />
<circle cx="54.99999999999994" cy="191.54494382022472" r="8" fill="#bfbfbf" />
<circle cx="96.71348314606738" cy="135.9269662921348" r="8" fill="#bfbfbf" />
<circle cx="138.4269662921348" cy="163.73595505617976" r="8" fill="#bfbfbf" />
<circle cx="54.99999999999994" cy="191.54494382022472" r="8" fill="#bfbfbf" />
<circle cx="138.4269662921348" cy="163.73595505617976" r="8" fill="#bfbfbf" />
<circle cx="110.61797752808984" cy="252.72471910112358" r="8" fill="#bfbfbf" />
<circle cx="54.99999999999994" cy="191.54494382022472" r="8" fill="#bfbfbf" />
<circle cx="138.4269662921348" cy="163.73595505617976" r="8" fill="#bfbfbf" />
<circle cx="166.23595505617973" cy="263.84831460674155" r="8" fill="#bfbfbf" />
<circle cx="110.61797752808984" cy="252.72471910112358" r="8" fill="#bfbfbf" />
<circle cx="138.4269662921348" cy="163.73595505617976" r="8" fill="#bfbfbf" />
<circle cx="221.85393258426964" cy="163.73595505617976" r="8" fill="#bfbfbf" />
<circle cx="166.23595505617973" cy="263.84831460674155" r="8" fill="#bfbfbf" />
<circle cx="221.85393258426964" cy="163.73595505617976" r="8" fill="#bfbfbf" />
<circle cx="277.4719101123595" cy="280.53370786516854" r="8" fill="#bfbfbf" />
<circle cx="166.23595505617973" cy="263.84831460674155" r="8" fill="#bfbfbf" />
<circle cx="221.85393258426964" cy="163.73595505617976" r="8" fill="#bfbfbf" />
<circle cx="360.8988764044944" cy="163.73595505617976" r="8" fill="#bfbfbf" />
<circle cx="277.4719101123595" cy="280.53370786516854" r="8" fill="#bfbfbf" />
<circle cx="360.8988764044944" cy="163.73595505617976" r="8" fill="#bfbfbf" />
<circle cx="388.70786516853934" cy="302.7808988764045" r="8" fill="#bfbfbf" />
<circle cx="277.4719101123595" cy="280.53370786516854" r="8" fill="#bfbfbf" />
<circle cx="360.8988764044944" cy="163.73595505617976" r="8" fill="#bfbfbf" />
<circle cx="499.9438202247191" cy="163.73595505617976" r="8" fill="#bfbfbf" />
<circle cx="388.70786516853934" cy="302.7808988764045" r="8" fill="#bfbfbf" />
<circle cx="499.9438202247191" cy="163.73595505617976" r="8" fill="#bfbfbf" />
<circle cx="499.9438202247191" cy="325.0280898876405" r="8" fill="#bfbfbf" />
<circle cx="388.70786516853934" cy="302.7808988764045" r="8" fill="#bfbfbf" />
<circle cx="499.9438202247191" cy="163.73595505617976" r="8" fill="#bfbfbf" />
<circle cx="583.370786516854" cy="247.16292134831463" r="8" fill="#bfbfbf" />
<circle cx="499.9438202247191" cy="325.0280898876405" r="8" fill="#bfbfbf" />
<circle cx="499.9438202247191" cy="163.73595505617976" r="8" fill="#bfbfbf" />
<circle cx="611.1797752808989" cy="135.9269662921348" r="8" fill="#bfbfbf" />
<circle cx="583.370786516854" cy="247.16292134831463" r="8" fill="#bfbfbf" />
<circle cx="583.370786516854" cy="247.16292134831463" r="8" fill="#bfbfbf" />
<circle cx="638.9887640449438" cy="358.3988764044944" r="8" fill="#bfbfbf" />
<circle cx="499.9438202247191" cy="325.0280898876405" r="8" fill="#bfbfbf" />
<circle cx="611.1797752808989" cy="135.9269662921348" r="8" fill="#bfbfbf" />
<circle cx="694.6067415730338" cy="202.6685393258427" r="8" fill="#bfbfbf" />
<circle cx="583.370786516854" cy="247.16292134831463" r="8" fill="#bfbfbf" />
<circle cx="694.6067415730338" cy="202.6685393258427" r="8" fill="#bfbfbf" />
<circle cx="694.6067415730338" cy="302.7808988764045" r="8" fill="#bfbfbf" />
<circle cx="583.370786516854" cy="247.16292134831463" r="8" fill="#bfbfbf" />
<circle cx="583.370786516854" cy="247.16292134831463" r="8" fill="#bfbfbf" />
<circle cx="694.6067415730338" cy="302.7808988764045" r="8" fill="#bfbfbf" />
<circle cx="638.9887640449438" cy="358.3988764044944" r="8" fill="#bfbfbf" />
<circle cx="694.6067415730338" cy="202.6685393258427" r="8" fill="#bfbfbf" />
<circle cx="805.8426966292136" cy="263.84831460674155" r="8" fill="#bfbfbf" />
<circle cx="694.6067415730338" cy="302.7808988764045" r="8" fill="#bfbfbf" />
<circle cx="694.6067415730338" cy="302.7808988764045" r="8" fill="#bfbfbf" />
<circle cx="750.2247191011236" cy="397.3314606741573" r="8" fill="#bfbfbf" />
<circle cx="638.9887640449438" cy="358.3988764044944" r="8" fill="#bfbfbf" />
<circle cx="805.8426966292136" cy="263.84831460674155" r="8" fill="#bfbfbf" />
<circle cx="750.2247191011236" cy="397.3314606741573" r="8" fill="#bfbfbf" />
<circle cx="694.6067415730338" cy="302.7808988764045" r="8" fill="#bfbfbf" />
<circle cx="805.8426966292136" cy="263.84831460674155" r="8" fill="#bfbfbf" />
<circle cx="861.4606741573034" cy="386.20786516853934" r="8" fill="#bfbfbf" />
<circle cx="750.2247191011236" cy="397.3314606741573" r="8" fill="#bfbfbf" />
<circle cx="750.2247191011236" cy="397.3314606741573" r="8" fill="#bfbfbf" />
<circle cx="861.4606741573034" cy="386.20786516853934" r="8" fill="#bfbfbf" />
<circle cx="917.0786516853934" cy="464.0730337078652" r="8" fill="#bfbfbf" />
<circle cx="805.8426966292136" cy="263.84831460674155" r="8" fill="#bfbfbf" />
<circle cx="917.0786516853934" cy="330.58988764044943" r="8" fill="#bfbfbf" />
<circle cx="861.4606741573034" cy="386.20786516853934" r="8" fill="#bfbfbf" />
<circle cx="917.0786516853934" cy="330.58988764044943" r="8" fill="#bfbfbf" />
<circle cx="944.8876404494383" cy="386.20786516853934" r="8" fill="#bfbfbf" />
<circle cx="861.4606741573034" cy="386.20786516853934" r="8" fill="#bfbfbf" />
<circle cx="861.4606741573034" cy="386.20786516853934" r="8" fill="#bfbfbf" />
<circle cx="944.8876404494383" cy="386.20786516853934" r="8" fill="#bfbfbf" />
<circle cx="917.0786516853934" cy="464.0730337078652" r="8" fill="#bfbfbf" />
<circle cx="944.8876404494383" cy="274.9719101123595" r="8" fill="#bfbfbf" />
<circle cx="1000.5056179775281" cy="286.09550561797755" r="8" fill="#bfbfbf" />
<circle cx="917.0786516853934" cy="330.58988764044943" r="8" fill="#bfbfbf" />
<circle cx="1000.5056179775281" cy="286.09550561797755" r="8" fill="#bfbfbf" />
<circle cx="1045.0" cy="297.21910112359546" r="8" fill="#bfbfbf" />
<circle cx="1028.3146067415732" cy="358.3988764044944" r="8" fill="#bfbfbf" />
<circle cx="1000.5056179775281" cy="286.09550561797755" r="8" fill="#bfbfbf" />
<circle cx="1028.3146067415732" cy="358.3988764044944" r="8" fill="#bfbfbf" />
<circle cx="917.0786516853934" cy="330.58988764044943" r="8" fill="#bfbfbf" />
<circle cx="944.8876404494383" cy="386.20786516853934" r="8" fill="#bfbfbf" />
<circle cx="1028.3146067415732" cy="358.3988764044944" r="8" fill="#bfbfbf" />
<circle cx="1000.5056179775281" cy="441.82584269662925" r="8" fill="#bfbfbf" />
<circle cx="944.8876404494383" cy="386.20786516853934" r="8" fill="#bfbfbf" />
<circle cx="1000.5056179775281" cy="441.82584269662925" r="8" fill="#bfbfbf" />
<circle cx="917.0786516853934" cy="464.0730337078652" r="8" fill="#bfbfbf" />
<circle cx="917.0786516853934" cy="330.58988764044943" r="8" fill="#bfbfbf" />
<circle cx="944.8876404494383" cy="386.20786516853934" r="8" fill="#bfbfbf" />
<circle cx="1028.3146067415732" cy="358.3988764044944" r="8" fill="#bfbfbf" />
</svg>